<svg width="24" height="24" viewBox="0 0 24 24" fill="none" xmlns="http://www.w3.org/2000/svg">
<path d="M9.9761 13.7249C11.4472 15.2173 13.2273 16.3695 15.1912 17.1006L17.848 14.9864C17.9268 14.9321 18.0202 14.9031 18.1158 14.9031C18.2115 14.9031 18.3048 14.9321 18.3836 14.9864L23.3168 18.1647C23.5041 18.2773 23.6626 18.4319 23.7799 18.6163C23.8971 18.8007 23.9699 19.0098 23.9925 19.2272C24.015 19.4446 23.9867 19.6642 23.9098 19.8687C23.8329 20.0733 23.7095 20.2571 23.5493 20.4058L21.2378 22.6891C20.9068 23.0162 20.4999 23.2563 20.0535 23.3878C19.6071 23.5194 19.1351 23.5384 18.6796 23.4432C14.1356 22.5047 9.94731 20.3068 6.59337 17.1006C3.31386 13.8625 1.04446 9.74231 0.0604563 5.23985C-0.0367507 4.79139 -0.0164623 4.32541 0.119355 3.88709C0.255173 3.44877 0.501914 3.05297 0.835667 2.73804L3.23177 0.426499C3.38005 0.274126 3.56087 0.157271 3.76071 0.0846856C3.96055 0.0120997 4.17422 -0.0143368 4.38572 0.00735563C4.59722 0.029048 4.80107 0.0983072 4.98201 0.209947C5.16295 0.321587 5.31629 0.472715 5.43055 0.652014L8.71463 5.52175C8.77127 5.59822 8.80185 5.69086 8.80185 5.78602C8.80185 5.88119 8.77127 5.97383 8.71463 6.0503L6.55108 8.65078C7.30204 10.5754 8.47201 12.3087 9.9761 13.7249Z" fill="white"/>
</svg>
