<svg width="24" height="19" viewBox="0 0 24 19" fill="none" xmlns="http://www.w3.org/2000/svg">
<path d="M23.1429 0H0.857143C0.383036 0 0 0.383036 0 0.857143V18C0 18.4741 0.383036 18.8571 0.857143 18.8571H23.1429C23.617 18.8571 24 18.4741 24 18V0.857143C24 0.383036 23.617 0 23.1429 0ZM22.0714 2.96786V16.9286H1.92857V2.96786L1.18929 2.39196L2.24196 1.03929L3.38839 1.93125H20.6143L21.7607 1.03929L22.8134 2.39196L22.0714 2.96786ZM20.6143 1.92857L12 8.625L3.38571 1.92857L2.23929 1.03661L1.18661 2.38929L1.92589 2.96518L11.0759 10.0795C11.339 10.2839 11.6628 10.3949 11.996 10.3949C12.3292 10.3949 12.6529 10.2839 12.9161 10.0795L22.0714 2.96786L22.8107 2.39196L21.758 1.03929L20.6143 1.92857Z" fill="white"/>
</svg>
