<svg width="28" height="28" viewBox="0 0 28 28" fill="none" xmlns="http://www.w3.org/2000/svg">
<path d="M14 0C6.26568 0 0 6.26658 0 14C0 21.7334 6.26658 28 14 28C21.7343 28 28 21.7334 28 14C28 6.26658 21.7334 0 14 0ZM20.8763 9.59136L18.5785 20.4192C18.4086 21.187 17.9516 21.373 17.3139 21.0117L13.8139 18.4321L12.1258 20.0579C11.9397 20.244 11.7817 20.4021 11.4204 20.4021L11.6688 16.8397L18.1548 10.9796C18.4375 10.7312 18.0925 10.5903 17.7195 10.8387L9.70335 15.885L6.24852 14.8066C5.49794 14.5699 5.48077 14.056 6.40658 13.6947L19.9044 8.48942C20.5312 8.26361 21.0786 8.64206 20.8754 9.59045L20.8763 9.59136Z" fill="white"/>
</svg>
