<svg width="170" height="48" viewBox="0 0 170 48" fill="none" xmlns="http://www.w3.org/2000/svg">
<g clip-path="url(#clip0)">
<path d="M39.2827 42.5059C37.4168 44.0469 35.3309 45.2971 33.0947 46.2141C31.4013 41.1384 28.5459 37.2909 24.486 34.5773C18.5878 30.6357 10.9602 29.6563 4.23195 28.7861C2.90987 28.6163 1.62397 28.4496 0.377339 28.2675C0.125961 26.8597 -0.000306064 25.432 2.92358e-05 24.0015C-0.00662037 19.7502 1.12117 15.5748 3.26603 11.9098C6.58637 15.0328 11.1654 18.5257 17.4831 22.152C31.9749 30.4749 37.5259 35.4717 39.2827 42.5059Z" fill="url(#paint0_linear)"/>
<path d="M25.3644 47.9605C24.9116 47.9848 24.4588 48 24 48C20.724 48.0035 17.482 47.3328 14.474 46.0291C11.4661 44.7253 8.75597 42.8165 6.51093 40.42C6.92445 40.42 7.34101 40.4411 7.76359 40.4411H7.95677C17.951 40.4533 22.9586 43.2549 25.3644 47.9605Z" fill="url(#paint1_linear)"/>
<path d="M4.078 29.9899C2.90381 29.8381 1.7568 29.6867 0.642975 29.5288C1.48054 33.0651 3.11184 36.3619 5.41219 39.1677C6.18792 39.2163 6.97576 39.2435 7.77565 39.2435H7.96581C15.7384 39.2435 21.1083 40.9475 24.3773 44.4496C25.3128 45.4571 26.0849 46.6061 26.6653 47.8544C28.4765 47.6555 30.2589 47.2485 31.9779 46.6416C27.4472 33.0067 15.1649 31.4208 4.078 29.9899Z" fill="url(#paint2_linear)"/>
<path d="M26.0164 19.6021C17.7849 14.6599 12.6716 9.36898 9.51129 4.8725C7.31955 6.53247 5.42768 8.55794 3.91803 10.8607C7.178 13.9595 11.7329 17.4554 18.1049 21.1029C30.6405 28.2979 36.3035 32.9461 39.0048 38.2581C39.5507 39.3323 39.9878 40.4587 40.3088 41.6205C41.4486 40.5656 42.4846 39.4029 43.403 38.1491C41.1691 31.8605 36.0317 25.6176 26.0164 19.6021Z" fill="url(#paint3_linear)"/>
<path d="M44.2632 36.8693C46.7102 33.0283 48.0072 28.5619 48 24.0015C48 10.7455 37.2571 2.90098e-05 24 2.90098e-05C19.1832 -0.00748085 14.476 1.44325 10.4923 4.16299C10.4923 4.16299 19.2731 2.07696 25.3644 4.65419C31.4558 7.23141 31.1238 11.4126 27.5768 12.4131C24.824 13.1923 21.2109 10.9123 19.4059 7.94091C18.944 8.01365 18.4762 8.10765 18.0023 8.21984C18.0627 10.3423 18.8143 13.2106 21.872 15.4148C23.3299 16.473 24.9116 17.5373 26.6412 18.5621C36.5267 24.4988 41.812 30.6597 44.2632 36.8693Z" fill="url(#paint4_linear)"/>
<path d="M67.1744 29.8923H60.4672L59.392 33.0667H54.8096L61.312 15.0955H66.3808L72.8832 33.0667H68.2496L67.1744 29.8923ZM66.048 26.5131L63.8208 19.9339L61.6192 26.5131H66.048ZM79.2397 14.1227V33.0667H74.8621V14.1227H79.2397ZM86.7899 14.1227V33.0667H82.4123V14.1227H86.7899ZM109.083 20.8811C109.083 21.9221 108.844 22.8779 108.366 23.7483C107.889 24.6016 107.155 25.2928 106.165 25.8219C105.175 26.3509 103.946 26.6155 102.478 26.6155H99.7648V33.0667H95.3872V15.0955H102.478C103.912 15.0955 105.124 15.3429 106.114 15.8379C107.103 16.3328 107.846 17.0155 108.341 17.8859C108.836 18.7563 109.083 19.7547 109.083 20.8811ZM102.146 23.1339C102.982 23.1339 103.605 22.9376 104.014 22.5451C104.424 22.1525 104.629 21.5979 104.629 20.8811C104.629 20.1643 104.424 19.6096 104.014 19.2171C103.605 18.8245 102.982 18.6283 102.146 18.6283H99.7648V23.1339H102.146ZM110.492 25.8987C110.492 24.4309 110.765 23.1424 111.311 22.0331C111.874 20.9237 112.634 20.0704 113.589 19.4731C114.545 18.8757 115.612 18.5771 116.789 18.5771C117.796 18.5771 118.675 18.7819 119.426 19.1915C120.194 19.6011 120.783 20.1387 121.193 20.8043V18.7819H125.57V33.0667H121.193V31.0443C120.766 31.7099 120.169 32.2475 119.401 32.6571C118.65 33.0667 117.771 33.2715 116.764 33.2715C115.603 33.2715 114.545 32.9728 113.589 32.3755C112.634 31.7611 111.874 30.8992 111.311 29.7899C110.765 28.6635 110.492 27.3664 110.492 25.8987ZM121.193 25.9243C121.193 24.832 120.885 23.9701 120.271 23.3387C119.674 22.7072 118.94 22.3915 118.069 22.3915C117.199 22.3915 116.457 22.7072 115.842 23.3387C115.245 23.9531 114.946 24.8064 114.946 25.8987C114.946 26.9909 115.245 27.8613 115.842 28.5099C116.457 29.1413 117.199 29.4571 118.069 29.4571C118.94 29.4571 119.674 29.1413 120.271 28.5099C120.885 27.8784 121.193 27.0165 121.193 25.9243ZM137.467 33.0667L133.115 27.0763V33.0667H128.737V14.1227H133.115V24.5931L137.441 18.7819H142.843L136.904 25.9499L142.894 33.0667H137.467ZM158.028 25.6939C158.028 26.1035 158.002 26.5301 157.951 26.9739H148.044C148.112 27.8613 148.394 28.544 148.889 29.0219C149.401 29.4827 150.023 29.7131 150.757 29.7131C151.85 29.7131 152.609 29.2523 153.036 28.3307H157.695C157.456 29.2693 157.021 30.1141 156.389 30.8651C155.775 31.616 154.998 32.2048 154.06 32.6315C153.121 33.0581 152.071 33.2715 150.911 33.2715C149.511 33.2715 148.266 32.9728 147.173 32.3755C146.081 31.7781 145.228 30.9248 144.613 29.8155C143.999 28.7061 143.692 27.4091 143.692 25.9243C143.692 24.4395 143.99 23.1424 144.588 22.0331C145.202 20.9237 146.055 20.0704 147.148 19.4731C148.24 18.8757 149.494 18.5771 150.911 18.5771C152.293 18.5771 153.522 18.8672 154.597 19.4475C155.673 20.0277 156.509 20.8555 157.106 21.9307C157.721 23.0059 158.028 24.2603 158.028 25.6939ZM153.548 24.5419C153.548 23.7909 153.292 23.1936 152.78 22.7499C152.268 22.3061 151.628 22.0843 150.86 22.0843C150.126 22.0843 149.503 22.2976 148.991 22.7243C148.496 23.1509 148.189 23.7568 148.069 24.5419H153.548ZM168.299 29.3547V33.0667H166.072C164.485 33.0667 163.247 32.6827 162.36 31.9147C161.472 31.1296 161.029 29.8581 161.029 28.1003V22.4171H159.288V18.7819H161.029V15.3003H165.406V18.7819H168.273V22.4171H165.406V28.1515C165.406 28.5781 165.509 28.8853 165.713 29.0731C165.918 29.2608 166.259 29.3547 166.737 29.3547H168.299Z" fill="black"/>
</g>
<defs>
<linearGradient id="paint0_linear" x1="15.2641" y1="11.9098" x2="33.0053" y2="47.9344" gradientUnits="userSpaceOnUse">
<stop stop-color="#0080D1"/>
<stop offset="1" stop-color="#63C2FF"/>
</linearGradient>
<linearGradient id="paint1_linear" x1="13.8368" y1="40.42" x2="15.9698" y2="49.8272" gradientUnits="userSpaceOnUse">
<stop stop-color="#0080D1"/>
<stop offset="1" stop-color="#63C2FF"/>
</linearGradient>
<linearGradient id="paint2_linear" x1="0.708028" y1="32.2853" x2="21.8185" y2="55.0981" gradientUnits="userSpaceOnUse">
<stop stop-color="#03CEA4"/>
<stop offset="1" stop-color="#03FBC8"/>
</linearGradient>
<linearGradient id="paint3_linear" x1="4" y1="10.4" x2="43.4667" y2="37.2" gradientUnits="userSpaceOnUse">
<stop stop-color="#03CEA4"/>
<stop offset="1" stop-color="#03FBC8"/>
</linearGradient>
<linearGradient id="paint4_linear" x1="25.0667" y1="8.37464e-07" x2="45.4667" y2="36.8" gradientUnits="userSpaceOnUse">
<stop stop-color="#0080D1"/>
<stop offset="1" stop-color="#63C2FF"/>
</linearGradient>
<clipPath id="clip0">
<rect width="169.333" height="48" fill="white"/>
</clipPath>
</defs>
</svg>
